<svg version="1" xmlns="http://www.w3.org/2000/svg" width="814.667" height="814.667" viewBox="0 0 611.000000 611.000000"><path d="M5 207v172h85v54.6c0 47.2.2 54.5 1.4 54.1 1.3-.5 21.8-16.8 68.6-54.3 6.9-5.5 25-20 40.3-32.2L228 379h207V35H5v172zm386 .5V336H211l-38.3 30.6-38.2 30.5-.3-30.5-.2-30.6H48V79h343v128.5z"/><path d="M477 143v22h86v256h-86l-.2 31-.3 31.1-17-13.6c-9.3-7.5-17.9-14.4-19-15.3-1.1-.9-5.2-4.2-9-7.2-3.9-3-7.2-5.7-7.5-6-.3-.3-3.6-3-7.5-6-3.8-3-7.2-5.7-7.5-6-.3-.3-2.6-2.2-5.2-4.2l-4.6-3.8H237.8l-17.2 13.7c-9.4 7.5-21.5 17.1-26.8 21.2-5.3 4.2-9.7 7.9-9.7 8.3-.1.5 44.7.8 99.4.8h99.6l68.1 54.5c37.5 30 68.5 54.5 69 54.5.4 0 .8-24.5.8-54.5V465h85V121H477v22z"/></svg>